<svg width="108" height="108" viewBox="0 0 108 108" fill="none" xmlns="http://www.w3.org/2000/svg">
<g clip-path="url(#clip0_567_1827)">
<g clip-path="url(#clip1_567_1827)">
<path d="M83.5312 0H24.4688C10.955 0 0 10.955 0 24.4688V83.5312C0 97.045 10.955 108 24.4688 108H83.5312C97.045 108 108 97.045 108 83.5312V24.4688C108 10.955 97.045 0 83.5312 0Z" fill="#5856D6"/>
<path d="M41.9249 75.984H65.8642C67.0591 75.984 68.0273 75.0158 68.0273 73.8208V34.1783C68.0273 32.9833 67.0591 32.0151 65.8642 32.0151H41.9249C40.7299 32.0151 39.7617 32.9833 39.7617 34.1783V73.8208C39.7617 75.0158 40.7299 75.984 41.9249 75.984Z" fill="white"/>
<path d="M44.3655 68.4471H63.4227C63.7106 68.4471 63.9437 68.2141 63.9437 67.9261V38.8189C63.9437 38.5309 63.7106 38.2979 63.4227 38.2979H44.3655C44.0776 38.2979 43.8445 38.5309 43.8445 38.8189V67.9261C43.8445 68.2141 44.0776 68.4471 44.3655 68.4471Z" fill="#5856D6"/>
<path d="M53.8944 73.807C54.9458 73.807 55.7981 72.975 55.7981 71.9487C55.7981 70.9223 54.9458 70.0903 53.8944 70.0903C52.843 70.0903 51.9907 70.9223 51.9907 71.9487C51.9907 72.975 52.843 73.807 53.8944 73.807Z" fill="#5856D6"/>
<path d="M50.4055 35.4069V35.4027C50.4055 35.0051 50.7283 34.6824 51.1259 34.6824H56.663C57.0606 34.6824 57.3833 35.0051 57.3833 35.4027V35.4069C57.3833 35.8046 57.0606 36.1273 56.663 36.1273H51.1259C50.7283 36.1273 50.4055 35.8046 50.4055 35.4069Z" fill="#5856D6"/>
<path d="M60.6614 48.3088H55.7192V43.085H52.07V48.3088H47.1277V51.8905H52.07V63.6588H55.7192V51.8905H60.6614V48.3088Z" fill="white"/>
</g>
</g>
<defs>
<clipPath id="clip0_567_1827">
<rect width="108" height="108" fill="white"/>
</clipPath>
<clipPath id="clip1_567_1827">
<rect width="108" height="108" fill="white"/>
</clipPath>
</defs>
</svg>
