<svg width="108" height="108" viewBox="0 0 108 108" fill="none" xmlns="http://www.w3.org/2000/svg">
<g clip-path="url(#clip0_1166_2359)">
<rect width="108" height="108" fill="#5857D0"/>
<g clip-path="url(#clip1_1166_2359)">
<mask id="mask0_1166_2359" style="mask-type:luminance" maskUnits="userSpaceOnUse" x="0" y="2" width="108" height="108">
<path d="M108 2H0V110H108V2Z" fill="white"/>
</mask>
<g mask="url(#mask0_1166_2359)">
<mask id="mask1_1166_2359" style="mask-type:luminance" maskUnits="userSpaceOnUse" x="0" y="2" width="108" height="108">
<path d="M108 2H0V110H108V2Z" fill="white"/>
</mask>
<g mask="url(#mask1_1166_2359)">
<path d="M108 2H0V110H108V2Z" fill="white"/>
<path d="M108 2H0V110H108V2Z" fill="#5857D0"/>
<path d="M46.61 50.99C46.61 51.08 46.59 51.17 46.56 51.27C46.53 51.37 46.49 51.41 46.45 51.41C46.01 51.45 45.65 51.58 45.37 51.81C45.09 52.04 44.86 52.35 44.68 52.75L41.06 60.53C40.37 61.99 39.8 63.01 39.36 63.58C38.92 64.15 38.35 64.44 37.63 64.44C37.13 64.44 36.74 64.32 36.45 64.07C36.17 63.83 36.03 63.5 36.03 63.09C36.03 62.68 36.17 62.35 36.45 62.08C36.73 61.8 37.07 61.67 37.49 61.67C37.82 61.67 38.08 61.73 38.28 61.85C38.48 61.97 38.66 62.03 38.82 62.03C38.97 62.03 39.14 61.91 39.34 61.67C39.54 61.43 39.82 60.88 40.18 60L40.47 59.38L37.17 52.73C36.96 52.3 36.76 51.99 36.54 51.79C36.33 51.59 35.97 51.46 35.47 51.39C35.43 51.38 35.4 51.33 35.36 51.24C35.33 51.15 35.31 51.06 35.31 50.97C35.31 50.88 35.33 50.79 35.36 50.69C35.39 50.59 35.43 50.55 35.47 50.55C35.87 50.55 36.33 50.57 36.86 50.61C37.39 50.65 37.87 50.67 38.32 50.67C38.77 50.67 39.27 50.65 39.83 50.61C40.39 50.57 40.87 50.55 41.27 50.55C41.31 50.55 41.34 50.6 41.38 50.7C41.41 50.8 41.43 50.89 41.43 50.97C41.43 51.03 41.41 51.12 41.38 51.23C41.35 51.34 41.31 51.39 41.27 51.39C40.95 51.42 40.71 51.47 40.53 51.56C40.35 51.65 40.26 51.79 40.26 51.99C40.26 52.13 40.28 52.26 40.33 52.38C40.37 52.5 40.42 52.61 40.47 52.73L42.03 56.03L43.57 52.73C43.62 52.6 43.66 52.5 43.68 52.44C43.7 52.38 43.71 52.28 43.71 52.17C43.71 51.96 43.64 51.79 43.49 51.67C43.34 51.54 43.08 51.45 42.68 51.4C42.64 51.39 42.6 51.34 42.57 51.25C42.54 51.16 42.52 51.07 42.52 50.98C42.52 50.89 42.54 50.8 42.57 50.7C42.6 50.6 42.64 50.56 42.68 50.56C43.08 50.56 43.43 50.58 43.73 50.62C44.03 50.66 44.37 50.68 44.74 50.68C44.96 50.68 45.22 50.66 45.53 50.62C45.84 50.58 46.15 50.56 46.47 50.56C46.51 50.56 46.54 50.61 46.58 50.7C46.61 50.8 46.63 50.89 46.63 50.98L46.61 50.99Z" fill="white"/>
<path d="M58.05 54.7C58.05 55.87 57.6 56.96 56.71 57.98C55.82 58.99 54.52 59.5 52.81 59.5C52 59.5 51.41 59.39 51.05 59.17C50.68 58.95 50.26 58.84 49.77 58.84C49.53 58.84 49.33 58.89 49.17 58.98C49.02 59.08 48.89 59.23 48.8 59.43C48.77 59.47 48.71 59.5 48.62 59.53C48.53 59.56 48.45 59.57 48.4 59.57C48.34 59.57 48.26 59.55 48.16 59.52C48.06 59.49 48.02 59.45 48.02 59.41C48.03 59.24 48.05 59 48.07 58.68C48.09 58.36 48.1 57.95 48.1 57.47V48.78C48.1 48.28 48 47.95 47.81 47.78C47.62 47.61 47.28 47.5 46.81 47.45C46.77 47.45 46.74 47.4 46.7 47.31C46.67 47.21 46.65 47.13 46.65 47.07C46.65 47.01 46.67 46.92 46.7 46.82C46.73 46.72 46.77 46.67 46.81 46.67C47.41 46.53 48.1 46.32 48.88 46.03C49.66 45.74 50.25 45.5 50.66 45.3C50.7 45.27 50.76 45.24 50.85 45.2C50.94 45.16 51.02 45.14 51.08 45.14C51.25 45.14 51.36 45.17 51.43 45.22C51.49 45.27 51.53 45.33 51.53 45.39C51.49 45.88 51.46 46.44 51.42 47.09C51.39 47.73 51.37 48.25 51.37 48.65V51.35C51.6 51.03 51.93 50.77 52.36 50.58C52.79 50.39 53.28 50.29 53.81 50.29C54.97 50.29 55.96 50.65 56.8 51.38C57.63 52.11 58.05 53.21 58.05 54.7ZM54.57 54.78C54.57 53.68 54.44 52.87 54.18 52.36C53.92 51.85 53.47 51.6 52.81 51.6C52.35 51.6 51.99 51.75 51.74 52.04C51.49 52.33 51.36 52.66 51.36 53V57.28C51.36 57.65 51.46 57.96 51.65 58.2C51.84 58.44 52.15 58.56 52.57 58.56C53.34 58.56 53.86 58.16 54.14 57.37C54.42 56.58 54.55 55.72 54.55 54.78H54.57Z" fill="white"/>
<path d="M64.74 58.77C64.74 58.85 64.72 58.94 64.69 59.04C64.66 59.14 64.62 59.19 64.58 59.19C64.18 59.19 63.68 59.17 63.09 59.13C62.49 59.09 61.97 59.07 61.52 59.07C61.07 59.07 60.6 59.09 60.07 59.13C59.54 59.17 59.09 59.19 58.7 59.19C58.66 59.19 58.63 59.14 58.59 59.04C58.56 58.94 58.54 58.85 58.54 58.77C58.54 58.71 58.56 58.62 58.59 58.52C58.62 58.42 58.66 58.36 58.7 58.35C59.18 58.3 59.51 58.17 59.71 57.96C59.91 57.75 60.01 57.34 60.01 56.72V48.76C60.01 48.25 59.91 47.91 59.72 47.75C59.53 47.59 59.19 47.48 58.7 47.43C58.66 47.42 58.63 47.36 58.59 47.27C58.56 47.17 58.54 47.09 58.54 47.03C58.54 46.97 58.56 46.89 58.59 46.79C58.62 46.69 58.66 46.65 58.7 46.65C59.32 46.51 59.99 46.3 60.73 46.02C61.47 45.74 62.08 45.49 62.57 45.26C62.61 45.23 62.67 45.2 62.76 45.16C62.85 45.12 62.93 45.1 62.99 45.1C63.14 45.1 63.26 45.13 63.33 45.19C63.4 45.25 63.43 45.3 63.42 45.35C63.39 45.8 63.36 46.35 63.32 47.01C63.28 47.67 63.26 48.2 63.26 48.61V56.72C63.26 57.33 63.36 57.74 63.57 57.96C63.78 58.18 64.11 58.31 64.57 58.35C64.61 58.35 64.64 58.4 64.68 58.51C64.71 58.62 64.73 58.71 64.73 58.77H64.74Z" fill="white"/>
<path d="M74.47 54.03C74.47 54.12 74.44 54.19 74.37 54.24C74.31 54.29 74.22 54.32 74.1 54.32H68.78C68.77 54.41 68.76 54.53 68.76 54.68V55.09C68.76 56.17 68.94 56.92 69.29 57.34C69.64 57.76 70.15 57.98 70.82 57.98C71.28 57.98 71.8 57.86 72.38 57.63C72.96 57.4 73.38 57.11 73.63 56.76C73.64 56.73 73.68 56.74 73.75 56.79C73.81 56.83 73.87 56.88 73.92 56.92C73.98 56.98 74.04 57.05 74.08 57.12C74.12 57.19 74.15 57.26 74.15 57.32C74.15 57.35 74.15 57.37 74.15 57.4C74.15 57.43 74.13 57.45 74.1 57.48C73.78 57.94 73.3 58.39 72.67 58.83C72.04 59.27 71.2 59.49 70.15 59.49C68.78 59.49 67.62 59.05 66.68 58.16C65.74 57.27 65.27 56.23 65.27 55.02C65.27 53.66 65.72 52.53 66.61 51.64C67.5 50.75 68.68 50.3 70.15 50.3C71.49 50.3 72.54 50.66 73.31 51.38C74.08 52.1 74.47 52.99 74.47 54.04V54.03ZM71.27 52.58C71.27 52.19 71.18 51.87 71.01 51.6C70.84 51.33 70.58 51.2 70.23 51.2C69.81 51.2 69.49 51.41 69.29 51.82C69.08 52.23 68.95 52.77 68.89 53.44L70.47 53.4C70.75 53.39 70.96 53.33 71.09 53.24C71.22 53.14 71.28 52.93 71.28 52.59L71.27 52.58Z" fill="white"/>
<path d="M30.01 50.71V43.08C30.01 42.98 30.09 42.89 30.2 42.89H32.4C32.5 42.89 32.59 42.97 32.59 43.08V59.42C32.59 59.52 32.51 59.61 32.4 59.61H30.25C30.15 59.61 30.06 59.53 30.06 59.42L30 50.71H30.01Z" fill="white"/>
<path d="M82.05 44.57H77.76C77.41 44.57 77.13 44.85 77.13 45.2C77.13 45.55 77.41 45.83 77.76 45.83H82.05C82.4 45.83 82.68 45.55 82.68 45.2C82.68 44.85 82.4 44.57 82.05 44.57Z" fill="#F7EC41"/>
<path d="M82.05 63.29H77.76C77.41 63.29 77.13 63.57 77.13 63.92C77.13 64.27 77.41 64.55 77.76 64.55H82.05C82.4 64.55 82.68 64.27 82.68 63.92C82.68 63.57 82.4 63.29 82.05 63.29Z" fill="#F7EC41"/>
<path d="M74.5 63.22H66.03C65.68 63.22 65.4 63.5 65.4 63.85C65.4 64.2 65.68 64.48 66.03 64.48H74.5C74.85 64.48 75.13 64.2 75.13 63.85C75.13 63.5 74.85 63.22 74.5 63.22Z" fill="#F7EC41"/>
<path d="M80.54 45.23V63.48C80.54 63.85 80.26 64.15 79.91 64.15C79.56 64.15 79.28 63.85 79.28 63.48V45.23C79.28 44.86 79.56 44.56 79.91 44.56C80.26 44.56 80.54 44.86 80.54 45.23Z" fill="#F7EC41"/>
<path d="M29.4 46.86H36.8V49.4H29.4V46.86H28.05C27.73 46.86 27.31 46.84 26.8 46.81C26.29 46.78 25.86 46.75 25.51 46.73C25.47 46.73 25.43 46.74 25.38 46.8C25.33 46.86 25.31 46.94 25.31 47.06C25.31 47.11 25.33 47.17 25.36 47.24C25.39 47.31 25.42 47.36 25.44 47.39C25.62 47.77 26.58 49.01 26.79 49.59L29.4 46.85V46.86Z" fill="white"/>
<path d="M26.79 49.59C26.79 49.59 27.84 49.39 29.4 49.39V46.85L26.79 49.59Z" fill="white"/>
<path d="M31.3 45.19V53.99" stroke="#5856D6" stroke-width="1.39" stroke-miterlimit="10"/>
<path d="M33.35 48H29.25" stroke="#5856D6" stroke-width="1.39" stroke-miterlimit="10"/>
</g>
</g>
</g>
</g>
<defs>
<clipPath id="clip0_1166_2359">
<rect width="108" height="108" fill="white"/>
</clipPath>
<clipPath id="clip1_1166_2359">
<rect width="108" height="108" fill="white"/>
</clipPath>
</defs>
</svg>
