<?xml version="1.0" encoding="UTF-8"?>
<svg id="Layer_1" data-name="Layer 1" xmlns="http://www.w3.org/2000/svg" xmlns:xlink="http://www.w3.org/1999/xlink" version="1.1" viewBox="0 0 108 108">
  <defs>
    <style>
      .cls-1 {
        clip-path: url(#clippath);
      }

      .cls-2, .cls-3 {
        fill: none;
      }

      .cls-2, .cls-4, .cls-5, .cls-6 {
        stroke-width: 0px;
      }

      .cls-3 {
        stroke: #5856d6;
        stroke-miterlimit: 10;
        stroke-width: 1.4px;
      }

      .cls-4 {
        fill: #5857d0;
      }

      .cls-7 {
        clip-path: url(#clippath-1);
      }

      .cls-5 {
        fill: #f7ec41;
      }

      .cls-6 {
        fill: #fff;
      }
    </style>
    <clipPath id="clippath">
      <rect class="cls-2" y="0" width="108" height="108"/>
    </clipPath>
    <clipPath id="clippath-1">
      <rect class="cls-2" y="0" width="108" height="108"/>
    </clipPath>
  </defs>
  <g class="cls-1">
    <g>
      <rect class="cls-6" y="0" width="108" height="108"/>
      <g class="cls-7">
        <g>
          <path class="cls-4" d="M108,0H0v108h108V0Z"/>
          <path class="cls-6" d="M46.6,49v.3s0,0,0,0c-.4,0-.8.2-1.1.4s-.5.5-.7.9l-3.6,7.8c-.7,1.5-1.3,2.5-1.7,3.1s-1,.9-1.7.9-.9,0-1.2-.4c-.3-.2-.4-.6-.4-1s0-.7.4-1c.3-.3.6-.4,1-.4s.6,0,.8.2c.2,0,.4.2.5.2s.3,0,.5-.4c.2-.2.5-.8.8-1.7l.3-.6-3.3-6.6c-.2-.4-.4-.7-.6-.9-.2-.2-.6-.3-1.1-.4v-.2c0,0,0-.2,0-.3v-.3s0,0,0,0h5.8c.4,0,0,0,0,.2v.6c0,0,0,.2,0,.2-.3,0-.6,0-.7.2-.2,0-.3.2-.3.4v.4c0,0,0,.2,0,.4l1.6,3.3,1.5-3.3c0,0,0-.2,0-.3s0-.2,0-.3c0-.2,0-.4-.2-.5,0,0-.4-.2-.8-.3v-.2c0,0,0-.2,0-.3v-.3s0,0,0,0h3.7c.3,0,0,0,0,0v.3h.3Z"/>
          <path class="cls-6" d="M58.1,52.7c0,1.2-.4,2.3-1.3,3.3-.9,1-2.2,1.5-3.9,1.5s-1.4,0-1.8-.3c-.4-.2-.8-.3-1.3-.3s-.4,0-.6,0c-.2,0-.3.2-.4.5h-.6s0,0,0,0v-10.6c0-.5,0-.8-.3-1-.2-.2-.5-.3-1-.3h0v-.5c0,0,0-.2,0-.2.6,0,1.3-.4,2.1-.6s1.4-.5,1.8-.7h.7v.2c0,.5,0,1.1,0,1.7v4.3c.2-.3.6-.6,1-.8s.9-.3,1.5-.3c1.2,0,2.2.4,3,1.1.8.7,1.3,1.8,1.3,3.3h0v-.3ZM54.6,52.8c0-1.1,0-1.9-.4-2.4-.3-.5-.7-.8-1.4-.8s-.8,0-1.1.4-.4.6-.4,1v4.3c0,.4,0,.7.3.9.2.2.5.4.9.4.8,0,1.3-.4,1.6-1.2s.4-1.7.4-2.6h.1Z"/>
          <path class="cls-6" d="M64.7,56.8v.3c0,0,0,.2,0,.2h-5.9c-.4,0,0,0,0-.2v-.5c0,0,0-.2,0-.2.5,0,.8-.2,1-.4s.3-.6.3-1.2v-8c0-.5,0-.8-.3-1-.2-.2-.5-.3-1-.3v-.2c0,0,0-.2,0-.2v-.2s0,0,0,0c.6,0,1.3-.4,2-.6s1.4-.5,1.8-.8h.7s0,0,0,.2v11.4c0,.6,0,1,.3,1.2s.5.4,1,.4v.2c0,0,0,.2,0,.3h0v-.3Z"/>
          <path class="cls-6" d="M74.5,52v.2h-5.6v.8c0,1.1.2,1.8.5,2.3.4.4.9.6,1.5.6s1,0,1.6-.3,1-.5,1.3-.9h0s0,0,.2,0c0,0,0,0,.2.2v.2c0,.1,0,0,0,0h0c-.3.5-.8.9-1.4,1.4-.6.4-1.5.7-2.5.7s-2.5-.4-3.5-1.3c-.9-.9-1.4-1.9-1.4-3.1s.4-2.5,1.3-3.4,2.1-1.3,3.5-1.3,2.4.4,3.2,1.1c.8.7,1.2,1.6,1.2,2.7h-.2ZM71.3,50.6c0-.4,0-.7-.3-1-.2-.3-.4-.4-.8-.4s-.7.2-.9.6c-.2.4-.3,1-.4,1.6h1.6c.3,0,.5,0,.6-.2,0,0,.2-.3.2-.6h0Z"/>
          <path class="cls-6" d="M30,48.7v-7.6c0,0,0-.2.2-.2h2.2c0,0,.2,0,.2.2v16.3c0,0,0,.2-.2.2h-2.1c-.1,0-.2,0-.2-.2v-8.7h-.1Z"/>
          <path class="cls-5" d="M82.1,42.6h-4.3c-.3,0-.6.3-.6.6h0c0,.4.3.6.6.6h4.3c.3,0,.6-.3.6-.6h0c0-.4-.3-.6-.6-.6Z"/>
          <path class="cls-5" d="M82.1,61.3h-4.3c-.3,0-.6.3-.6.6h0c0,.4.3.6.6.6h4.3c.3,0,.6-.3.6-.6h0c0-.4-.3-.6-.6-.6Z"/>
          <path class="cls-5" d="M74.5,61.2h-8.5c-.3,0-.6.3-.6.6h0c0,.4.3.6.6.6h8.5c.3,0,.6-.3.6-.6h0c0-.4-.3-.6-.6-.6Z"/>
          <path class="cls-5" d="M80.5,43.2v18.2c0,.4-.3.7-.6.7s-.6-.3-.6-.7v-18.2c0-.4.3-.7.6-.7s.6.3.6.7Z"/>
          <path class="cls-6" d="M29.4,44.9h7.4v2.5h-7.4v-2.5h-3.9v.5h0c.2.5,1.1,1.7,1.4,2.3l2.6-2.7h-.1Z"/>
          <path class="cls-6" d="M26.8,47.6s1-.2,2.6-.2v-2.5l-2.6,2.7h0Z"/>
          <path class="cls-3" d="M31.3,43.2v8.8"/>
          <path class="cls-3" d="M33.4,46h-4.1"/>
        </g>
      </g>
    </g>
  </g>
</svg>