<svg width="700" height="700" viewBox="0 0 700 700" fill="none" xmlns="http://www.w3.org/2000/svg">
<g clip-path="url(#clip0_1166_2361)">
<path d="M144 65.4002C144 66.9002 143.8 68.4002 143.3 70.1002C142.8 71.8002 142.2 72.6002 141.4 72.6002L111.7 71.8002V123.4C111.7 127.1 112.5 129.9 114 131.7C115.5 133.5 118.2 134.4 121.9 134.4C125.6 134.4 127.6 133.6 130.2 132.1C132.8 130.6 135 128.7 136.9 126.4C137.4 125.6 138.1 125.3 138.9 125.6C139.7 125.9 140.4 126.3 141.1 127C141.6 127.7 142.1 128.5 142.6 129.5C143.1 130.5 143.3 131.3 143.3 132V132.8C143.3 133.1 143.2 133.3 142.9 133.4C140.1 137 135.9 140.4 130.1 143.7C124.4 147 117.7 148.6 110 148.6C102.3 148.6 90.9 145.7 85.3 139.9C79.7 134.1 76.9999 124.7 77.0999 111.7L77.5 74.2002C77.5 73.4002 77.3 72.7002 76.9 72.2002C76.5 71.7002 75.8999 71.4002 75.0999 71.4002H62.7C62.2 71.4002 61.6999 70.8002 61.2999 69.6002C60.8999 68.4002 60.7 67.5002 60.7 67.0002C60.7 66.5002 60.8999 65.6002 61.2999 64.5002C61.6999 63.4002 62.1 62.7002 62.5 62.4002C69.9 58.4002 77.4 53.7002 84.9 48.3002C92.4 42.9002 98.8 37.6002 103.9 32.3002C104.2 31.9002 104.8 31.5002 105.8 31.2002C106.8 30.9002 107.6 30.7002 108.3 30.7002C109 30.7002 110.2 30.9002 111.2 31.2002C112.2 31.5002 112.7 31.9002 112.7 32.3002L111.9 58.4002H141.4C142.2 58.4002 142.8 59.3002 143.3 61.0002C143.8 62.7002 144 64.2002 144 65.4002Z" fill="#5857D0"/>
<path d="M256.4 61.8003C256.4 62.7003 256.2 63.7003 255.9 64.7003C255.6 65.7003 255.2 66.2003 254.8 66.2003C250.3 66.6003 246.6 68.0003 243.6 70.3003C240.7 72.6003 238.3 75.9003 236.4 80.0003L198.9 160.5C191.7 175.6 185.9 186.2 181.4 192.1C176.9 198 170.9 201 163.5 201C156.1 201 154.3 199.7 151.3 197.2C148.4 194.7 146.9 191.3 146.9 187C146.9 182.7 148.3 179.4 151.2 176.5C154.1 173.6 157.7 172.2 162 172.2C166.3 172.2 168.1 172.8 170.1 174.1C172.1 175.4 174 176 175.7 176C177.4 176 179.1 174.8 181.1 172.3C183.1 169.8 186 164.1 189.8 155.1L192.8 148.7L158.7 79.9003C156.6 75.5003 154.4 72.2003 152.2 70.2003C150 68.1003 146.3 66.8003 141.1 66.1003C140.7 66.0003 140.3 65.4003 140 64.5003C139.7 63.6003 139.5 62.6003 139.5 61.7003C139.5 60.8003 139.7 59.8003 140 58.8003C140.3 57.8003 140.7 57.3003 141.1 57.3003C145.2 57.3003 150 57.5003 155.5 57.9003C160.9 58.3003 166 58.5003 170.6 58.5003C175.2 58.5003 180.5 58.3003 186.2 57.9003C192 57.5003 196.9 57.3003 201 57.3003C205.1 57.3003 201.8 57.8003 202.1 58.9003C202.4 60.0003 202.6 60.9003 202.6 61.7003C202.6 62.5003 202.4 63.3003 202.1 64.4003C201.7 65.5003 201.4 66.1003 200.9 66.1003C197.6 66.4003 195.1 67.0003 193.2 67.9003C191.3 68.8003 190.4 70.3003 190.4 72.3003C190.4 74.3003 190.6 75.1003 191.1 76.3003C191.6 77.5003 192.1 78.7003 192.6 79.9003L208.8 114.1L224.7 79.9003C225.2 78.6003 225.6 77.6003 225.8 76.9003C226 76.2003 226.1 75.3003 226.1 74.1003C226.1 72.0003 225.3 70.2003 223.8 68.9003C222.3 67.6003 219.5 66.6003 215.5 66.1003C215.1 66.0003 214.7 65.4003 214.3 64.5003C214 63.6003 213.8 62.6003 213.8 61.7003C213.8 60.8003 214 59.8003 214.3 58.8003C214.6 57.8003 215 57.3003 215.4 57.3003C219.5 57.3003 223.1 57.5003 226.3 57.9003C229.4 58.3003 232.9 58.5003 236.8 58.5003C240.7 58.5003 241.8 58.3003 245 57.9003C248.2 57.5003 251.4 57.3003 254.8 57.3003C258.2 57.3003 255.6 57.8003 255.9 58.8003C256.2 59.8003 256.4 60.8003 256.4 61.7003V61.8003Z" fill="#5857D0"/>
<path d="M375.4 99.3003C375.4 113 370.9 124.8 361.9 134.7C352.9 144.6 340.6 149.5 324.9 149.5C309.2 149.5 317.2 149.1 314.2 148.3C311.2 147.5 308.5 146.4 306.1 145.1V172.6C306.1 179 307.2 183.2 309.3 185.4C311.4 187.5 315.4 188.9 321.3 189.4C321.7 189.4 322.1 190 322.4 191.1C322.7 192.2 322.9 193.1 322.9 193.8C322.9 194.5 322.7 195.5 322.4 196.6C322.1 197.7 321.7 198.2 321.3 198.2C317 198.2 311.8 198 305.6 197.7C299.4 197.4 293.9 197.2 289.3 197.2C284.7 197.2 279.4 197.4 273.7 197.7C267.9 198 263 198.2 259.1 198.2C255.2 198.2 258.3 197.7 258 196.7C257.7 195.7 257.5 194.7 257.5 193.8C257.5 192.9 257.7 192.3 258 191.2C258.3 190.1 258.7 189.5 259.1 189.4C264.9 188.7 268.6 187.4 270.2 185.5C271.7 183.6 272.5 179.3 272.5 172.6V89.8003C272.5 84.6003 271.9 81.2003 270.6 79.4003C269.3 77.7003 266.3 76.5003 261.5 76.0003C261.1 75.9003 260.7 75.3003 260.4 74.3003C260.1 73.3003 259.9 72.5003 259.9 71.8003C259.9 71.1003 260.1 70.3003 260.4 69.3003C260.7 68.3003 261.1 67.8003 261.5 67.8003C266 66.6003 272.2 64.5003 280.1 61.6003C288 58.6003 293.8 56.2003 297.5 54.4003C297.9 54.1003 298.6 53.8003 299.5 53.4003C300.4 53.0003 301.2 52.8003 301.9 52.8003C303.5 52.8003 304.7 53.1003 305.4 53.7003C306.1 54.3003 306.4 54.9003 306.3 55.4003L305.5 70.9003C307.8 66.6003 311.3 62.8003 316.2 59.4003C321 56.0003 327.4 54.3003 335.2 54.3003C347.7 54.3003 357.5 58.6003 364.7 67.3003C371.9 75.9003 375.5 86.6003 375.5 99.2003L375.4 99.3003ZM336.7 128.8C337.8 125.6 338.5 121.7 338.8 117C339.1 112.4 339.3 107 339.3 100.9C339.3 90.1003 337.8 82.4003 334.7 77.6003C331.6 72.8003 327.7 70.4003 322.7 70.4003C317.7 70.4003 315.5 71.2003 313.4 72.8003C311.3 74.4003 308.9 77.7003 306.1 82.8003V125.1C306.1 129.8 307.3 133.4 309.7 136.2C312.1 138.9 315.8 140.3 320.9 140.3C326 140.3 328.7 139.3 331.3 137.3C333.8 135.3 335.6 132.5 336.7 128.9V128.8Z" fill="#5857D0"/>
<path d="M481.8 93.1004C481.8 94.0004 481.5 94.8004 480.8 95.3004C480.1 95.8004 479.2 96.1004 478 96.1004H423C422.9 97.0004 422.8 98.3004 422.8 99.8004V104.1C422.8 115.3 424.6 123 428.3 127.4C432 131.8 437.2 134 444.1 134C451 134 454.3 132.8 460.2 130.4C466.2 128 470.5 125 473.2 121.4C473.3 121.1 473.7 121.2 474.4 121.7C475.1 122.2 475.7 122.6 476.2 123C476.9 123.7 477.4 124.4 477.9 125.1C478.4 125.8 478.6 126.5 478.6 127.2C478.6 127.9 478.6 127.7 478.6 128C478.6 128.3 478.4 128.5 478.1 128.8C474.8 133.6 469.9 138.2 463.4 142.8C456.9 147.3 448.2 149.6 437.3 149.6C426.4 149.6 411.1 145 401.4 135.8C391.7 126.6 386.9 115.8 386.9 103.3C386.9 90.8004 391.5 77.6004 400.8 68.3004C410 59.1004 422.2 54.4004 437.4 54.4004C452.6 54.4004 462.1 58.1004 470.1 65.6004C478.1 73.0004 482.1 82.2004 482.1 93.1004H481.8ZM448.7 78.2004C448.7 74.2004 447.8 70.8004 446 68.0004C444.2 65.2004 441.5 63.8004 437.9 63.8004C434.3 63.8004 430.3 65.9004 428.1 70.2004C426 74.5004 424.6 80.0004 423.9 86.9004L440.2 86.5004C443.1 86.4004 445.2 85.8004 446.6 84.8004C447.9 83.8004 448.6 81.6004 448.6 78.1004L448.7 78.2004Z" fill="#5857D0"/>
<path d="M55.8 207.3H16.9C13.034 207.3 9.90002 210.434 9.90002 214.3V217C9.90002 220.866 13.034 224 16.9 224H55.8C59.666 224 62.8 220.866 62.8 217V214.3C62.8 210.434 59.666 207.3 55.8 207.3Z" fill="#FCEC20"/>
<path d="M56.4 406.9H15.8C12.0997 406.9 9.09998 409.9 9.09998 413.6V415.2C9.09998 418.9 12.0997 421.9 15.8 421.9H56.4C60.1003 421.9 63.1 418.9 63.1 415.2V413.6C63.1 409.9 60.1003 406.9 56.4 406.9Z" fill="#FCEC20"/>
<path d="M45.1 409.7L45.1 221.5C45.1 217.358 41.7421 214 37.6 214C33.4578 214 30.1 217.358 30.1 221.5L30.1 409.7C30.1 413.842 33.4578 417.2 37.6 417.2C41.7421 417.2 45.1 413.842 45.1 409.7Z" fill="#FCEC20"/>
</g>
<defs>
<clipPath id="clip0_1166_2361">
<rect width="700" height="700" fill="white"/>
</clipPath>
</defs>
</svg>
